<svg xmlns="http://www.w3.org/2000/svg" width="1600" height="1131" viewBox="0 0 1600 1131">
<defs>
<linearGradient id="navy" x1="0" y1="0" x2="1" y2="1"><stop offset="0" stop-color="#1B2E5E"/><stop offset="1" stop-color="#0E1C40"/></linearGradient>
<linearGradient id="gold" x1="0" y1="0" x2="0" y2="1"><stop offset="0" stop-color="#F4C66B"/><stop offset="1" stop-color="#C9912F"/></linearGradient>
<linearGradient id="blue" x1="0" y1="0" x2="1" y2="1"><stop offset="0" stop-color="#1463FF"/><stop offset="1" stop-color="#0B46C0"/></linearGradient>
<radialGradient id="bgtint" cx="0.5" cy="0.32" r="0.75"><stop offset="0" stop-color="#FFFFFF"/><stop offset="1" stop-color="#FCFCF8"/></radialGradient>
</defs>
<rect width="1600" height="1131" fill="url(#bgtint)"/>
<circle cx="800.0" cy="430" r="300" fill="none" stroke="#1463FF" stroke-width="1" opacity="0.04"/>
<circle cx="800.0" cy="430" r="230" fill="none" stroke="#1463FF" stroke-width="1" opacity="0.04"/>
<circle cx="800.0" cy="430" r="160" fill="none" stroke="#1463FF" stroke-width="1" opacity="0.04"/>
<rect x="46" y="46" width="1508" height="1039" rx="10" fill="none" stroke="url(#navy)" stroke-width="9"/>
<rect x="62" y="62" width="1476" height="1007" rx="6" fill="none" stroke="url(#gold)" stroke-width="2.5"/>
<path d="M 92 92 L 182 92" stroke="url(#gold)" stroke-width="3"/>
<path d="M 92 92 L 92 182" stroke="url(#gold)" stroke-width="3"/>
<rect x="85" y="85" width="14" height="14" fill="url(#gold)" transform="rotate(45 92 92)"/>
<path d="M 1508 92 L 1418 92" stroke="url(#gold)" stroke-width="3"/>
<path d="M 1508 92 L 1508 182" stroke="url(#gold)" stroke-width="3"/>
<rect x="1501" y="85" width="14" height="14" fill="url(#gold)" transform="rotate(45 1508 92)"/>
<path d="M 92 1039 L 182 1039" stroke="url(#gold)" stroke-width="3"/>
<path d="M 92 1039 L 92 949" stroke="url(#gold)" stroke-width="3"/>
<rect x="85" y="1032" width="14" height="14" fill="url(#gold)" transform="rotate(45 92 1039)"/>
<path d="M 1508 1039 L 1418 1039" stroke="url(#gold)" stroke-width="3"/>
<path d="M 1508 1039 L 1508 949" stroke="url(#gold)" stroke-width="3"/>
<rect x="1501" y="1032" width="14" height="14" fill="url(#gold)" transform="rotate(45 1508 1039)"/>
<circle cx="800.0" cy="150" r="42" fill="url(#blue)"/>
<circle cx="800.0" cy="150" r="42" fill="none" stroke="url(#gold)" stroke-width="2.5"/>
<circle cx="800.0" cy="144" r="16" fill="none" stroke="#FFFFFF" stroke-width="3"/>
<rect x="793.0" y="159" width="14" height="9" rx="2" fill="#FFFFFF"/>
<line x1="795.0" y1="171" x2="805.0" y2="171" stroke="#FFFFFF" stroke-width="2.5"/>
<line x1="800.0" y1="128" x2="800.0" y2="122" stroke="#FFFFFF" stroke-width="2.5"/>
<text x="800.0" y="222" font-family="'DejaVu Sans','Arial',sans-serif" font-size="17" font-weight="700" fill="#13224A" text-anchor="middle" letter-spacing="3" opacity="1">BUXORO DAVLAT PEDAGOGIKA INSTITUTI</text>
<line x1="650.0" y1="236" x2="950.0" y2="236" stroke="url(#gold)" stroke-width="1.5"/>
<text x="800.0" y="318" font-family="'DejaVu Serif','Georgia',serif" font-size="76" font-weight="700" fill="#13224A" text-anchor="middle" letter-spacing="14" opacity="1">SERTIFIKAT</text>
<text x="800.0" y="352" font-family="'DejaVu Serif','Georgia',serif" font-size="21" font-weight="400" fill="#6A7388" text-anchor="middle" letter-spacing="0" font-style="italic" opacity="1">muvaffaqiyatli yakunlagani uchun</text>
<text x="800.0" y="408" font-family="'DejaVu Serif','Georgia',serif" font-size="19" font-weight="400" fill="#1A2238" text-anchor="middle" letter-spacing="0" opacity="1">Ushbu sertifikat</text>
<text x="800.0" y="470" font-family="'DejaVu Serif','Georgia',serif" font-size="46" font-weight="700" fill="#0B46C0" text-anchor="middle" letter-spacing="0" opacity="1">[ Talaba ismi va familiyasi ]</text>
<line x1="420.0" y1="492" x2="1180.0" y2="492" stroke="#6A7388" stroke-width="1.5" opacity="0.5"/>
<text x="800.0" y="548" font-family="'DejaVu Serif','Georgia',serif" font-size="21" font-weight="400" fill="#1A2238" text-anchor="middle" letter-spacing="0" opacity="1">“Texnik ijodkorlik va konstruksiyalash” fani bo‘yicha barcha 8 mavzuni</text>
<text x="800.0" y="580" font-family="'DejaVu Serif','Georgia',serif" font-size="21" font-weight="400" fill="#1A2238" text-anchor="middle" letter-spacing="0" opacity="1">to‘liq o‘zlashtirib, 90% dan yuqori natijaga erishgani uchun taqdim etiladi.</text>
<line x1="862.0" y1="690.0" x2="872.0" y2="690.0" stroke="url(#gold)" stroke-width="4"/>
<line x1="860.4" y1="703.8" x2="870.2" y2="706.0" stroke="url(#gold)" stroke-width="4"/>
<line x1="855.9" y1="716.9" x2="864.9" y2="721.2" stroke="url(#gold)" stroke-width="4"/>
<line x1="848.5" y1="728.7" x2="856.3" y2="734.9" stroke="url(#gold)" stroke-width="4"/>
<line x1="838.7" y1="738.5" x2="844.9" y2="746.3" stroke="url(#gold)" stroke-width="4"/>
<line x1="826.9" y1="745.9" x2="831.2" y2="754.9" stroke="url(#gold)" stroke-width="4"/>
<line x1="813.8" y1="750.4" x2="816.0" y2="760.2" stroke="url(#gold)" stroke-width="4"/>
<line x1="800.0" y1="752.0" x2="800.0" y2="762.0" stroke="url(#gold)" stroke-width="4"/>
<line x1="786.2" y1="750.4" x2="784.0" y2="760.2" stroke="url(#gold)" stroke-width="4"/>
<line x1="773.1" y1="745.9" x2="768.8" y2="754.9" stroke="url(#gold)" stroke-width="4"/>
<line x1="761.3" y1="738.5" x2="755.1" y2="746.3" stroke="url(#gold)" stroke-width="4"/>
<line x1="751.5" y1="728.7" x2="743.7" y2="734.9" stroke="url(#gold)" stroke-width="4"/>
<line x1="744.1" y1="716.9" x2="735.1" y2="721.2" stroke="url(#gold)" stroke-width="4"/>
<line x1="739.6" y1="703.8" x2="729.8" y2="706.0" stroke="url(#gold)" stroke-width="4"/>
<line x1="738.0" y1="690.0" x2="728.0" y2="690.0" stroke="url(#gold)" stroke-width="4"/>
<line x1="739.6" y1="676.2" x2="729.8" y2="674.0" stroke="url(#gold)" stroke-width="4"/>
<line x1="744.1" y1="663.1" x2="735.1" y2="658.8" stroke="url(#gold)" stroke-width="4"/>
<line x1="751.5" y1="651.3" x2="743.7" y2="645.1" stroke="url(#gold)" stroke-width="4"/>
<line x1="761.3" y1="641.5" x2="755.1" y2="633.7" stroke="url(#gold)" stroke-width="4"/>
<line x1="773.1" y1="634.1" x2="768.8" y2="625.1" stroke="url(#gold)" stroke-width="4"/>
<line x1="786.2" y1="629.6" x2="784.0" y2="619.8" stroke="url(#gold)" stroke-width="4"/>
<line x1="800.0" y1="628.0" x2="800.0" y2="618.0" stroke="url(#gold)" stroke-width="4"/>
<line x1="813.8" y1="629.6" x2="816.0" y2="619.8" stroke="url(#gold)" stroke-width="4"/>
<line x1="826.9" y1="634.1" x2="831.2" y2="625.1" stroke="url(#gold)" stroke-width="4"/>
<line x1="838.7" y1="641.5" x2="844.9" y2="633.7" stroke="url(#gold)" stroke-width="4"/>
<line x1="848.5" y1="651.3" x2="856.3" y2="645.1" stroke="url(#gold)" stroke-width="4"/>
<line x1="855.9" y1="663.1" x2="864.9" y2="658.8" stroke="url(#gold)" stroke-width="4"/>
<line x1="860.4" y1="676.2" x2="870.2" y2="674.0" stroke="url(#gold)" stroke-width="4"/>
<circle cx="800.0" cy="690" r="58" fill="url(#gold)"/>
<circle cx="800.0" cy="690" r="50" fill="none" stroke="#FFFFFF" stroke-width="2" opacity="0.7"/>
<text x="800.0" y="686" font-family="'DejaVu Sans','Arial',sans-serif" font-size="26" font-weight="800" fill="#FFFFFF" text-anchor="middle" letter-spacing="0" opacity="1">90%+</text>
<text x="800.0" y="710" font-family="'DejaVu Sans','Arial',sans-serif" font-size="11" font-weight="800" fill="#FFFFFF" text-anchor="middle" letter-spacing="2" opacity="1">MUKAMMAL</text>
<path d="M 774.0 740 L 756.0 808 L 786.0 788 L 796.0 808 L 792.0 742 Z" fill="#0B46C0"/>
<path d="M 826.0 740 L 844.0 808 L 814.0 788 L 804.0 808 L 808.0 742 Z" fill="#1463FF"/>
<line x1="160" y1="940" x2="420" y2="940" stroke="#13224A" stroke-width="1.5"/>
<text x="290" y="966" font-family="'DejaVu Sans','Arial',sans-serif" font-size="16" font-weight="600" fill="#6A7388" text-anchor="middle" letter-spacing="1" opacity="1">Sana</text>
<line x1="1180" y1="940" x2="1440" y2="940" stroke="#13224A" stroke-width="1.5"/>
<text x="1310" y="966" font-family="'DejaVu Sans','Arial',sans-serif" font-size="16" font-weight="600" fill="#6A7388" text-anchor="middle" letter-spacing="1" opacity="1">O‘qituvchi imzosi</text>
<text x="800.0" y="1053" font-family="'DejaVu Sans','Arial',sans-serif" font-size="13" font-weight="700" fill="#13224A" text-anchor="middle" letter-spacing="3" opacity="0.85">TEXNIK IJODKORLIK VA KONSTRUKSIYALASH</text>
<text x="800.0" y="1073" font-family="'DejaVu Serif','Georgia',serif" font-size="12" font-weight="400" fill="#6A7388" text-anchor="middle" letter-spacing="0" font-style="italic" opacity="1">mobil o‘quv ilovasi</text>
</svg>